<svg xmlns="http://www.w3.org/2000/svg" viewBox="0 0 600 280">
<rect width="600" height="280" fill="none"/>
<defs><linearGradient id="gold" x1="0" x2="1"><stop stop-color="#D4AF7C"/><stop offset=".55" stop-color="#F0D2A2"/><stop offset="1" stop-color="#D4AF7C"/></linearGradient></defs>
<g id="eagle" fill="none" stroke="url(#gold)" stroke-linecap="round" stroke-linejoin="round">
 <path d="M86 160 C145 72 238 42 344 78 C394 95 430 121 461 147" stroke-width="18"/>
 <path d="M98 178 C157 112 224 89 298 98" stroke-width="14"/>
 <path d="M111 198 C161 151 210 131 263 132" stroke-width="11"/>
 <path d="M344 78 C383 63 428 68 474 94 C449 101 427 113 408 130" stroke-width="14"/>
 <path d="M461 147 C481 143 499 149 512 160 C488 165 470 176 453 194" stroke-width="13"/>
</g>
<path d="M388 104 C400 97 414 98 426 104 C414 113 401 115 388 104Z" fill="#8B0000"/>
</svg>