<svg xmlns="http://www.w3.org/2000/svg" viewBox="0 0 260 280" role="img" aria-labelledby="title desc">
  <title id="title">Ideogramma Ying oro</title>
  <desc id="desc">Ideogramma cinese stilizzato in oro satinato per la hero Arianna Milano.</desc>
  <defs>
    <linearGradient id="hero-ying-gold" x1="20" y1="40" x2="220" y2="240" gradientUnits="userSpaceOnUse">
      <stop offset="0" stop-color="#f0cf76"/>
      <stop offset="0.38" stop-color="#c49232"/>
      <stop offset="0.72" stop-color="#e0b551"/>
      <stop offset="1" stop-color="#8b6425"/>
    </linearGradient>
    <filter id="hero-ying-shadow" x="-20%" y="-20%" width="140%" height="140%">
      <feDropShadow dx="0" dy="12" stdDeviation="9" flood-color="#000000" flood-opacity="0.55"/>
    </filter>
  </defs>
  <g filter="url(#hero-ying-shadow)">
    <path fill="url(#hero-ying-gold)" d="M116.104,68.379 L127.529,71.191 C126.475,73.418 125.42,75.586 124.365,77.695 L153.721,77.695 L150.557,69.961 L162.686,67.324 L166.377,77.695 L201.006,77.695 L201.006,85.43 L166.553,85.43 L166.553,93.34 L196.963,93.34 L196.963,100.723 L166.553,100.723 L166.553,108.633 L196.963,108.633 L196.963,116.016 L166.553,116.016 L166.553,123.926 L202.061,123.926 L202.061,131.66 L121.553,131.66 L121.553,134.824 L110.303,134.824 L110.303,103.184 C107.373,107.637 104.561,111.504 101.865,114.785 C99.404,111.973 96.709,109.219 93.779,106.523 C102.686,96.797 110.127,84.082 116.104,68.379ZM116.455,45.176 L128.76,40.254 C131.338,45.176 134.033,50.742 136.846,56.953 L203.291,56.953 L203.291,67.148 L60.732,67.148 L60.732,124.981 C60.732,163.301 54.229,193.359 41.221,215.156 C38.174,211.406 34.893,207.832 31.377,204.434 C42.51,186.152 48.076,159.844 48.076,125.508 L48.076,56.953 L122.607,56.953 C120.732,52.969 118.682,49.043 116.455,45.176ZM92.197,148.535 L92.197,171.738 L196.963,171.738 C196.729,179.941 196.436,186.621 196.084,191.777 C195.029,206.191 186.123,213.398 169.365,213.398 C163.975,213.398 155.244,213.281 143.174,213.047 C142.822,208.828 142.119,205.078 141.065,201.797 C155.01,202.383 164.502,202.676 169.541,202.676 C178.799,202.676 183.721,198.457 184.307,190.02 C184.658,186.621 184.834,183.223 184.834,179.824 L80.244,179.824 L80.244,140.449 L115.4,140.449 L118.037,135.352 L130.869,135.352 L127.881,140.449 L179.209,140.449 C178.975,146.191 178.564,150.879 177.979,154.512 C176.572,162.715 171.182,166.816 161.807,166.816 C158.291,166.816 152.08,166.758 143.174,166.641 C142.705,163.477 142.002,160.195 141.065,156.797 C146.572,157.266 152.666,157.5 159.346,157.5 C164.502,157.5 167.197,154.512 167.432,148.535ZM87.979,68.555 L99.053,72.422 C96.475,77.344 93.955,81.973 91.494,86.309 L91.494,134.824 L79.893,134.824 L79.893,104.766 C76.377,109.805 72.92,114.316 69.521,118.301 C65.303,112.91 62.725,109.688 61.787,108.633 C72.334,98.203 81.064,84.844 87.979,68.555ZM61.436,187.734 L169.365,187.734 L169.365,195.82 L61.436,195.82ZM121.553,123.926 L155.303,123.926 L155.303,116.016 L121.553,116.016ZM121.553,108.633 L155.303,108.633 L155.303,100.723 L121.553,100.723ZM121.553,93.34 L155.303,93.34 L155.303,85.43 L121.553,85.43ZM111.006,150.293 C118.975,153.223 127.412,156.797 136.318,161.016 L131.572,169.277 C122.9,164.707 114.522,160.898 106.436,157.852Z"/>
    <path fill="none" stroke="url(#hero-ying-gold)" stroke-width="3.5" stroke-linecap="round" opacity="0.48" d="M158 28c58 24 86 86 66 144-18 54-72 90-130 85"/>
    <path fill="none" stroke="#f0cf76" stroke-width="1.2" stroke-linecap="round" opacity="0.35" d="M76 70c33-17 73-18 112-2M75 202c36 10 75 8 113-6"/>
  </g>
</svg>
