<svg xmlns="http://www.w3.org/2000/svg" viewBox="0 0 250 104" role="img" aria-labelledby="title desc">
  <title id="title">Arianna Milano</title>
  <desc id="desc">Logo vettoriale Arianna Milano Sanda Athlete.</desc>
  <style>
    .wordmark-city { fill: var(--asset-gold, #d8a13a); }
    .wordmark-role,
    .wordmark-line { display: none; }
  </style>
  <g fill="currentColor">
    <path class="wordmark-name" fill="var(--asset-ivory, #f7f0e4)" d="M33.258,41.035 L27.605,41.035 L25.343,33.902 L15.004,33.902 L12.869,41.035 L7.326,41.035 L17.383,9.539 L22.906,9.539ZM23.664,28.574 L20.099,16.887 L16.6,28.574ZM36.781,41.035 L36.781,9.539 L47.76,9.539 C50.567,9.539 52.572,9.822 53.775,10.388 C54.979,10.953 55.967,11.935 56.74,13.331 C57.514,14.728 57.9,16.4 57.9,18.348 C57.9,20.811 57.31,22.795 56.128,24.299 C54.946,25.803 53.267,26.748 51.09,27.135 C52.207,27.937 53.131,28.814 53.861,29.767 C54.592,30.719 55.587,32.427 56.848,34.891 L59.984,41.035 L53.764,41.035 L49.99,34.182 C48.632,31.704 47.71,30.153 47.223,29.53 C46.736,28.907 46.22,28.478 45.676,28.241 C45.132,28.005 44.258,27.887 43.055,27.887 L41.98,27.887 L41.98,41.035ZM41.98,22.859 L45.848,22.859 C48.211,22.859 49.715,22.756 50.359,22.548 C51.004,22.34 51.527,21.921 51.928,21.291 C52.329,20.661 52.529,19.823 52.529,18.777 C52.529,17.775 52.329,16.969 51.928,16.36 C51.527,15.752 50.982,15.333 50.295,15.104 C49.808,14.946 48.397,14.867 46.063,14.867 L41.98,14.867ZM63.422,41.035 L63.422,9.539 L68.621,9.539 L68.621,41.035ZM97.217,41.035 L91.564,41.035 L89.302,33.902 L78.963,33.902 L76.828,41.035 L71.285,41.035 L81.342,9.539 L86.865,9.539ZM87.623,28.574 L84.058,16.887 L80.559,28.574ZM100.783,41.035 L100.783,9.539 L105.854,9.539 L116.424,30.572 L116.424,9.539 L121.279,9.539 L121.279,41.035 L116.037,41.035 L105.639,20.496 L105.639,41.035ZM127.596,41.035 L127.596,9.539 L132.666,9.539 L143.236,30.572 L143.236,9.539 L148.092,9.539 L148.092,41.035 L142.85,41.035 L132.451,20.496 L132.451,41.035ZM177.654,41.035 L172.002,41.035 L169.74,33.902 L159.401,33.902 L157.266,41.035 L151.723,41.035 L161.78,9.539 L167.302,9.539ZM168.061,28.574 L164.495,16.887 L160.996,28.574Z"/>
    <path class="wordmark-city" fill="var(--asset-red, #b8242f)" d="M51.391,68.383 L51.391,51.203 L55.644,51.203 L58.205,62.934 L60.746,51.203 L65.02,51.203 L65.02,68.383 L62.371,68.383 L62.371,54.848 L59.563,68.383 L56.826,68.383 L54.039,54.848 L54.039,68.383ZM68.23,68.383 L68.23,51.203 L71.066,51.203 L71.066,68.383ZM74.031,68.383 L74.031,51.344 L76.867,51.344 L76.867,65.477 L83.945,65.477 L83.945,68.383ZM99.051,68.383 L95.967,68.383 L94.734,64.492 L89.094,64.492 L87.93,68.383 L84.906,68.383 L90.392,51.203 L93.404,51.203ZM93.818,61.586 L91.873,55.211 L89.965,61.586ZM100.996,68.383 L100.996,51.203 L103.762,51.203 L109.527,62.676 L109.527,51.203 L112.176,51.203 L112.176,68.383 L109.316,68.383 L103.645,57.18 L103.645,68.383ZM115.012,59.898 C115.012,57.852 115.314,56.166 115.92,54.842 C116.525,53.518 117.316,52.531 118.293,51.883 C119.27,51.234 120.453,50.91 121.844,50.91 C123.859,50.91 125.502,51.68 126.772,53.219 C128.041,54.758 128.676,56.949 128.676,59.793 C128.676,62.668 128.004,64.914 126.66,66.531 C125.481,67.961 123.879,68.676 121.856,68.676 C119.816,68.676 118.207,67.969 117.027,66.555 C115.684,64.938 115.012,62.719 115.012,59.898ZM117.941,59.781 C117.941,61.758 118.317,63.24 119.068,64.229 C119.819,65.217 120.75,65.711 121.861,65.711 C122.98,65.711 123.907,65.221 124.643,64.24 C125.378,63.26 125.746,61.754 125.746,59.723 C125.746,57.73 125.388,56.258 124.672,55.305 C123.956,54.352 123.019,53.875 121.861,53.875 C120.703,53.875 119.761,54.355 119.033,55.316 C118.305,56.277 117.941,57.766 117.941,59.781Z"/>
    <path class="wordmark-role" fill="var(--asset-ivory, #f7f0e4)" d="M33.258,90.063 L34.43,89.938 C34.492,90.568 34.634,91.059 34.855,91.41 C35.077,91.762 35.393,92.044 35.805,92.258 C36.216,92.471 36.68,92.578 37.195,92.578 C37.935,92.578 38.509,92.398 38.918,92.036 C39.327,91.675 39.531,91.206 39.531,90.629 C39.531,90.291 39.457,89.996 39.309,89.744 C39.16,89.492 38.936,89.286 38.637,89.125 C38.337,88.963 37.69,88.736 36.695,88.441 C35.81,88.178 35.18,87.914 34.805,87.648 C34.43,87.383 34.138,87.046 33.93,86.637 C33.721,86.228 33.617,85.766 33.617,85.25 C33.617,84.323 33.917,83.565 34.516,82.977 C35.115,82.388 35.922,82.094 36.938,82.094 C37.635,82.094 38.246,82.232 38.77,82.508 C39.293,82.784 39.699,83.18 39.988,83.695 C40.277,84.211 40.432,84.818 40.453,85.516 L39.258,85.625 C39.195,84.88 38.973,84.328 38.59,83.969 C38.207,83.609 37.669,83.43 36.977,83.43 C36.273,83.43 35.737,83.587 35.367,83.902 C34.997,84.217 34.813,84.625 34.813,85.125 C34.813,85.588 34.948,85.948 35.219,86.203 C35.49,86.458 36.099,86.716 37.046,86.978 C37.973,87.234 38.624,87.457 38.999,87.645 C39.571,87.938 40.004,88.322 40.296,88.799 C40.588,89.275 40.734,89.843 40.734,90.504 C40.734,91.159 40.581,91.756 40.273,92.295 C39.966,92.833 39.548,93.243 39.02,93.524 C38.491,93.805 37.854,93.945 37.109,93.945 C35.948,93.945 35.022,93.596 34.332,92.898 C33.642,92.201 33.284,91.255 33.258,90.063ZM41.664,93.75 L45.286,82.297 L46.615,82.297 L50.461,93.75 L49.039,93.75 L47.946,90.281 L43.995,90.281 L42.975,93.75ZM44.359,89.047 L47.558,89.047 L46.582,85.875 C46.28,84.901 46.059,84.109 45.918,83.5 C45.797,84.234 45.625,84.964 45.403,85.688ZM51.672,93.75 L51.672,82.297 L52.945,82.297 L57.883,91.307 L57.883,82.297 L59.07,82.297 L59.07,93.75 L57.797,93.75 L52.867,84.738 L52.867,93.75ZM61.43,93.75 L61.43,82.297 L64.672,82.297 C65.474,82.297 66.083,82.367 66.5,82.508 C67.047,82.69 67.521,83.023 67.922,83.508 C68.323,83.992 68.635,84.603 68.859,85.34 C69.083,86.077 69.195,86.951 69.195,87.961 C69.195,89.258 69.005,90.358 68.625,91.262 C68.245,92.165 67.757,92.806 67.16,93.184 C66.564,93.561 65.784,93.75 64.82,93.75ZM62.672,92.398 L64.672,92.398 C65.479,92.398 66.091,92.267 66.508,92.004 C66.924,91.741 67.245,91.318 67.469,90.734 C67.766,89.958 67.914,89.029 67.914,87.945 C67.914,86.784 67.757,85.871 67.441,85.207 C67.126,84.543 66.721,84.099 66.227,83.875 C65.893,83.724 65.365,83.648 64.641,83.648 L62.672,83.648ZM70.18,93.75 L73.802,82.297 L75.13,82.297 L78.977,93.75 L77.555,93.75 L76.462,90.281 L72.511,90.281 L71.49,93.75ZM72.874,89.047 L76.073,89.047 L75.097,85.875 C74.795,84.901 74.574,84.109 74.434,83.5 C74.312,84.234 74.141,84.964 73.919,85.688ZM82.953,93.75 L86.575,82.297 L87.904,82.297 L91.75,93.75 L90.328,93.75 L89.235,90.281 L85.285,90.281 L84.264,93.75ZM85.648,89.047 L88.847,89.047 L87.871,85.875 C87.569,84.901 87.348,84.109 87.207,83.5 C87.086,84.234 86.914,84.964 86.693,85.688ZM95.406,93.75 L95.406,83.648 L92.313,83.648 L92.313,82.297 L99.758,82.297 L99.758,83.648 L96.648,83.648 L96.648,93.75ZM101.25,93.75 L101.25,82.297 L102.492,82.297 L102.492,87 L107.375,87 L107.375,82.297 L108.617,82.297 L108.617,93.75 L107.375,93.75 L107.375,88.352 L102.492,88.352 L102.492,93.75ZM110.93,93.75 L110.93,82.297 L112.172,82.297 L112.172,92.398 L116.797,92.398 L116.797,93.75ZM118.547,93.75 L118.547,82.297 L125.336,82.297 L125.336,83.648 L119.789,83.648 L119.789,87.148 L124.984,87.148 L124.984,88.5 L119.789,88.5 L119.789,92.398 L125.555,92.398 L125.555,93.75ZM129.945,93.75 L129.945,83.648 L126.852,83.648 L126.852,82.297 L134.297,82.297 L134.297,83.648 L131.188,83.648 L131.188,93.75ZM135.82,93.75 L135.82,82.297 L142.609,82.297 L142.609,83.648 L137.063,83.648 L137.063,87.148 L142.258,87.148 L142.258,88.5 L137.063,88.5 L137.063,92.398 L142.828,92.398 L142.828,93.75Z"/>
    <path class="wordmark-line" fill="var(--asset-red, #b8242f)" d="M0 72h24v2H0z"/>
  </g>
</svg>
