<svg xmlns="http://www.w3.org/2000/svg" viewBox="0 0 760 180" role="img" aria-labelledby="title desc">
  <title id="title">Disciplina lettering</title>
  <desc id="desc">Lettering vettoriale brush per la parola Disciplina, coerente con il sistema Arianna Milano.</desc>
  <g fill="none" stroke="#c79a50" stroke-linecap="round" stroke-linejoin="round">
    <path d="M42 132C82 84 101 48 108 22c10 67-27 122-70 125 73 15 133-18 154-72M203 78c-18 36-17 65 6 70 24 5 51-25 66-65M287 78c-22 42-5 72 31 61 23-7 42-31 53-56M389 77c-25 43-10 73 28 62 25-8 43-31 55-58M484 80c-22 47-33 79-50 110M493 77c37-15 61 5 49 33-11 28-47 41-79 31M573 78c-20 39-18 66 7 70 26 4 48-24 63-67M657 82c-13 31-10 57 10 63 27 8 62-24 76-63" stroke-width="14"/>
    <path d="M65 155c128 15 286 4 416-2 108-4 190 2 251 14" stroke-width="5" opacity=".56"/>
  </g>
</svg>
