<svg xmlns="http://www.w3.org/2000/svg" viewBox="0 0 560 170" role="img" aria-labelledby="title desc">
  <title id="title">Focus lettering</title>
  <desc id="desc">Lettering vettoriale brush per la parola Focus, coerente con il sistema Arianna Milano.</desc>
  <g fill="none" stroke="#c79a50" stroke-linecap="round" stroke-linejoin="round">
    <path d="M38 130C69 91 83 57 93 22c-3 44-10 81-24 122M63 68c44-12 82-17 121-10M145 127c21-43 66-67 88-44 19 21-6 62-39 65-28 2-48-18-37-47M257 92c-24 39-7 67 25 55 23-9 39-31 49-54M341 91c-15 33-14 59 5 63 24 5 51-26 66-63M422 91c-27 43-13 69 25 58 24-7 61-40 45-60-15-18-47 0-53 19 26 4 55 10 70 26" stroke-width="15"/>
    <path d="M48 151c84 13 185 7 281 2 77-4 142-1 184 9" stroke-width="5" opacity=".58"/>
  </g>
</svg>
