<svg xmlns="http://www.w3.org/2000/svg" viewBox="0 0 420 130" role="img" aria-labelledby="title desc">
  <title id="title">LIBERTÀ</title>
  <desc id="desc">Lettering vettoriale replicabile per LIBERTÀ.</desc>
  <g fill="currentColor">
    <path class="lettering-word" fill="var(--asset-gold, #c6a15b)" d="M71.906,53.93 L73.48,55.504 C70.704,58.991 68.275,61.53 66.193,63.121 C64.111,64.712 62.579,65.508 61.598,65.508 C60.785,65.508 60.379,64.78 60.379,63.324 C60.379,59.702 62.766,54.116 67.539,46.566 C71.568,40.033 73.582,36.393 73.582,35.648 C73.582,35.005 73.311,34.684 72.77,34.684 C71.822,34.684 69.435,36.816 65.609,41.082 C61.784,45.348 57.061,51.374 51.441,59.16 C45.077,67.827 40.71,74.022 38.34,77.746 C42.842,78.186 46.541,78.753 49.436,79.447 C52.33,80.141 56.528,81.267 62.029,82.824 C67.531,84.382 71.585,85.296 74.191,85.566 C71.009,89.189 68.817,91.652 67.615,92.955 C66.413,94.258 65.491,95.046 64.848,95.316 C63.832,95.757 62.326,95.782 60.328,95.393 C58.331,95.003 55.165,94.25 50.832,93.133 C46.499,92.016 42.445,91.085 38.67,90.34 C34.895,89.595 31.451,89.223 28.336,89.223 C26.576,89.223 25.061,89.426 23.791,89.832 C22.521,90.238 20.761,90.907 18.51,91.838 C16.258,92.769 14.676,93.234 13.762,93.234 C12.441,93.234 11.781,92.693 11.781,91.609 C11.781,91 12.001,90.306 12.441,89.527 C13.559,87.733 14.642,86.023 15.691,84.398 C16.741,82.773 17.858,81.504 19.043,80.59 C20.228,79.676 21.938,78.965 24.172,78.457 C26.406,77.949 29.352,77.678 33.008,77.645 C38.526,69.181 43.672,61.674 48.445,55.123 C53.219,48.572 57.561,43.046 61.471,38.543 C65.381,34.04 68.809,30.63 71.754,28.311 C74.699,25.992 77.035,24.832 78.762,24.832 C79.98,24.832 80.928,25.171 81.605,25.848 C82.283,26.525 82.621,27.473 82.621,28.691 C82.621,32.754 79.049,41.167 71.906,53.93ZM99.531,93.895 L96.383,91.609 C95.909,91.203 95.672,90.78 95.672,90.34 C95.672,89.9 96.467,88.376 98.059,85.77 C99.21,83.908 100.759,81.352 102.705,78.102 C104.652,74.852 106.217,72.177 107.402,70.078 C108.587,67.979 110.035,65.229 111.744,61.826 C113.454,58.424 115.02,55.098 116.441,51.848 C119.725,44.366 121.367,39.592 121.367,37.527 C121.367,35.09 120.419,33.871 118.523,33.871 C117.102,33.871 115.079,34.591 112.455,36.029 C109.831,37.468 107.115,39.355 104.305,41.691 C101.495,44.027 99.159,46.465 97.297,49.004 C95.435,51.543 94.504,53.777 94.504,55.707 C94.504,56.012 94.589,56.24 94.758,56.393 C94.927,56.545 95.232,56.621 95.672,56.621 C96.484,56.621 97.805,56.147 99.633,55.199 C100.445,54.793 100.852,54.861 100.852,55.402 C100.852,55.944 99.565,57.34 96.992,59.592 C94.419,61.843 92.523,62.969 91.305,62.969 C90.255,62.969 88.791,62.063 86.912,60.252 C85.033,58.441 84.094,56.79 84.094,55.301 C84.094,54.725 84.618,53.354 85.668,51.188 C86.717,49.021 88.156,46.575 89.984,43.85 C91.812,41.124 93.742,38.763 95.773,36.766 C98.109,34.43 100.775,32.348 103.772,30.52 C106.768,28.691 109.645,27.27 112.404,26.254 C115.163,25.238 117.389,24.73 119.082,24.73 C121.52,24.73 123.424,25.653 124.795,27.498 C126.166,29.343 126.852,31.924 126.852,35.242 C126.852,39.643 125.125,46.008 121.672,54.336 C118.219,62.664 112.904,72.414 105.727,83.586 C105.828,83.924 105.947,84.288 106.082,84.678 C106.217,85.067 106.285,85.431 106.285,85.77 C106.285,85.837 106.234,85.964 106.133,86.15 C106.031,86.337 105.913,86.531 105.777,86.734 C105.642,86.938 105.557,87.073 105.523,87.141 L101.816,93.234 C101.41,93.945 100.987,94.301 100.547,94.301 C100.141,94.301 99.802,94.165 99.531,93.895ZM156.508,58.094 L153.918,61.141 C156.931,61.411 159.622,61.775 161.992,62.232 C164.362,62.689 166.554,63.197 168.568,63.756 C170.583,64.314 172.352,64.898 173.875,65.508 C179.224,67.742 181.898,70.857 181.898,74.852 C181.898,77.289 180.781,79.676 178.547,82.012 C176.313,84.348 173.41,86.43 169.838,88.258 C166.266,90.086 162.593,91.516 158.818,92.549 C155.044,93.581 151.616,94.098 148.535,94.098 C143.389,94.098 139.378,93.141 136.5,91.229 C133.622,89.316 132.184,86.701 132.184,83.383 C132.184,81.081 133.064,78.372 134.824,75.258 C136.585,72.143 139.31,68.267 143,63.629 C140.224,63.493 138.26,63.079 137.109,62.385 C135.958,61.691 135.383,60.717 135.383,59.465 C135.383,58.686 135.603,58.094 136.043,57.688 C136.483,57.281 137.076,56.985 137.82,56.799 C138.565,56.613 139.995,56.384 142.111,56.113 C144.227,55.842 146.944,55.504 150.262,55.098 C153.952,50.561 157.261,47.15 160.19,44.865 C163.118,42.58 166.258,41.268 169.609,40.93 C169.88,40.896 170.176,40.879 170.498,40.879 C170.82,40.879 170.981,40.964 170.981,41.133 C170.981,41.336 170.6,41.878 169.838,42.758 C169.076,43.638 167.841,45.043 166.131,46.973 C164.421,48.902 162.398,51.188 160.063,53.828 C166.427,52.982 171.632,52.008 175.678,50.908 C179.723,49.808 182.779,48.496 184.844,46.973 C186.909,45.449 187.941,43.757 187.941,41.895 C187.941,39.626 186.841,37.984 184.641,36.969 C182.44,35.953 179.072,35.445 174.535,35.445 C172.03,35.445 169.161,35.699 165.928,36.207 C162.695,36.715 159.766,37.29 157.143,37.934 C154.519,38.577 152.183,39.262 150.135,39.99 C148.087,40.718 147.063,41.251 147.063,41.59 C147.063,41.691 147.164,41.793 147.367,41.895 C149.026,42.504 149.856,43.012 149.856,43.418 C149.856,43.96 147.316,45.001 142.238,46.541 C137.16,48.081 133.741,48.852 131.981,48.852 C130.728,48.852 130.102,48.225 130.102,46.973 C130.102,45.483 131.464,42.8 134.19,38.924 C136.915,35.048 139.395,32.568 141.629,31.484 C142.408,31.112 144.219,30.52 147.063,29.707 C149.906,28.895 153.029,28.116 156.432,27.371 C159.834,26.626 163.296,26 166.816,25.492 C170.337,24.984 173.452,24.73 176.16,24.73 C182.559,24.73 187.366,25.873 190.582,28.158 C193.798,30.443 195.406,33.313 195.406,36.766 C195.406,39.102 194.67,41.353 193.197,43.52 C191.725,45.686 189.431,47.734 186.316,49.664 C183.202,51.594 179.148,53.286 174.154,54.742 C169.161,56.198 163.279,57.315 156.508,58.094ZM151.125,64.645 C149.365,66.743 147.799,68.597 146.428,70.205 C145.057,71.813 144.075,73.117 143.482,74.115 C142.89,75.114 142.594,76.121 142.594,77.137 C142.594,78.762 143.432,80.209 145.107,81.479 C146.783,82.748 149.195,83.383 152.344,83.383 C155.255,83.383 158.361,82.867 161.662,81.834 C164.963,80.801 167.739,79.456 169.99,77.797 C172.242,76.138 173.367,74.462 173.367,72.77 C173.367,71.314 172.538,70.112 170.879,69.164 C169.22,68.216 166.698,67.378 163.313,66.65 C159.927,65.923 155.865,65.254 151.125,64.645ZM254.719,28.438 L254.719,31.891 C254.719,33.313 254.44,34.21 253.881,34.582 C253.322,34.954 251.274,35.953 247.736,37.578 C244.199,39.203 240.805,41.116 237.555,43.316 C238.807,41.488 239.95,40.134 240.982,39.254 C242.015,38.374 243.412,37.273 245.172,35.953 C243.648,35.344 241.533,35.039 238.824,35.039 C234.626,35.039 230.098,35.868 225.24,37.527 C220.382,39.186 216.252,41.167 212.85,43.469 C209.447,45.771 207.746,47.701 207.746,49.258 C207.746,50.07 208.262,50.739 209.295,51.264 C210.328,51.788 211.986,52.195 214.272,52.482 C216.557,52.77 219.409,52.965 222.828,53.066 C226.247,53.168 230.462,53.219 235.473,53.219 C239.129,53.219 241.482,53.354 242.531,53.625 C243.581,53.896 244.106,54.522 244.106,55.504 C244.106,56.757 243.488,58.187 242.252,59.795 C241.016,61.403 239.383,62.359 237.352,62.664 C234.203,63.172 231.698,63.604 229.836,63.959 C227.974,64.314 225.765,64.915 223.209,65.762 C220.653,66.608 217.818,67.827 214.703,69.418 C210.065,71.855 206.443,74.327 203.836,76.832 C201.229,79.337 199.926,81.555 199.926,83.484 C199.926,85.143 200.857,86.438 202.719,87.369 C204.581,88.3 207.255,88.766 210.742,88.766 C222.76,88.766 234.999,83.366 247.457,72.566 C247.525,75.884 247.161,78.804 246.365,81.326 C245.57,83.848 243.953,86.26 241.516,88.563 C239.484,90.492 236.514,92.337 232.604,94.098 C228.693,95.858 224.428,97.263 219.807,98.313 C215.186,99.362 210.844,99.887 206.781,99.887 C202.076,99.887 198.182,98.761 195.102,96.51 C192.021,94.258 190.481,91.271 190.481,87.547 C190.481,84.839 191.225,82.147 192.715,79.473 C194.204,76.798 196.49,74.234 199.57,71.779 C202.651,69.325 206.553,67.099 211.275,65.102 C215.998,63.104 221.44,61.53 227.602,60.379 C228.482,60.21 228.922,59.939 228.922,59.566 C228.922,59.16 228.406,58.915 227.373,58.83 C226.341,58.745 224.445,58.686 221.686,58.652 C218.926,58.618 216.497,58.5 214.398,58.297 C212.3,58.094 210.082,57.654 207.746,56.977 C205.342,56.232 203.489,54.928 202.186,53.066 C200.882,51.204 200.231,49.139 200.231,46.871 C200.231,43.96 201.28,41.031 203.379,38.086 C205.478,35.141 208.44,32.483 212.266,30.113 C216.091,27.743 220.721,25.839 226.154,24.4 C231.588,22.962 237.538,22.242 244.004,22.242 C247.728,22.242 250.326,22.454 251.799,22.877 C253.272,23.3 254.126,23.859 254.363,24.553 C254.6,25.247 254.719,26.542 254.719,28.438ZM292.348,87.75 L273.203,78.406 C268.328,85.076 265.603,89.477 265.027,91.609 C264.621,93.133 263.716,94.411 262.311,95.443 C260.906,96.476 259.898,96.992 259.289,96.992 C257.563,96.992 256.699,96.332 256.699,95.012 C256.699,94.267 257.723,92.126 259.772,88.588 C261.82,85.05 264.638,80.878 268.227,76.07 C266.229,75.258 264.994,74.716 264.52,74.445 C264.046,74.174 263.859,73.658 263.961,72.896 C264.063,72.135 264.655,70.941 265.738,69.316 C266.686,67.895 267.397,66.938 267.871,66.447 C268.345,65.956 268.904,65.567 269.547,65.279 C270.19,64.992 270.867,64.797 271.578,64.695 C272.289,64.594 274.286,64.34 277.57,63.934 C280.245,60.311 283.148,56.401 286.279,52.203 C289.411,48.005 291.857,44.738 293.617,42.402 C288.302,43.113 284.595,43.706 282.496,44.18 C280.262,44.62 278.391,44.984 276.885,45.271 C275.378,45.559 274.32,45.813 273.711,46.033 C273.102,46.253 272.797,46.566 272.797,46.973 C272.797,47.345 273.169,47.599 273.914,47.734 C274.659,47.87 275.598,47.938 276.732,47.938 C277.867,47.938 278.747,47.98 279.373,48.064 C279.999,48.149 280.313,48.344 280.313,48.648 C280.313,48.987 279.898,49.182 279.068,49.232 C278.239,49.283 275.911,49.393 272.086,49.563 C269.919,49.63 268.1,49.698 266.627,49.766 C265.154,49.833 264.13,49.867 263.555,49.867 C262.776,49.867 262.167,49.63 261.727,49.156 C261.286,48.682 261.066,48.056 261.066,47.277 C261.066,46.702 261.388,45.635 262.031,44.078 C262.675,42.521 263.589,40.947 264.773,39.355 C265.958,37.764 267.313,36.529 268.836,35.648 C270.563,34.599 273.245,33.541 276.885,32.475 C280.524,31.408 284.57,30.545 289.022,29.885 C293.473,29.225 297.883,28.895 302.25,28.895 C304.891,28.895 307.472,29.047 309.994,29.352 C312.516,29.656 314.801,30.029 316.85,30.469 C318.898,30.909 320.514,31.349 321.699,31.789 C324.78,32.805 327.141,34.345 328.783,36.41 C330.425,38.475 331.246,40.743 331.246,43.215 C331.246,45.618 330.831,47.963 330.002,50.248 C329.173,52.533 327.903,54.649 326.193,56.596 C324.484,58.542 322.427,60.125 320.023,61.344 C318.06,62.359 315.081,63.392 311.086,64.441 C307.091,65.491 302.267,66.422 296.613,67.234 C290.96,68.047 284.646,68.639 277.672,69.012 C282.885,70.84 287.752,72.676 292.272,74.521 C296.791,76.367 300.6,78.008 303.697,79.447 C306.795,80.886 309.224,82.063 310.984,82.977 C313.456,84.263 315.064,85.194 315.809,85.77 C316.553,86.345 317.044,87.09 317.281,88.004 C317.518,88.918 317.637,90.424 317.637,92.523 C317.637,94.893 317.493,96.645 317.205,97.779 C316.917,98.913 316.3,99.48 315.352,99.48 C315.047,99.48 314.243,99.15 312.94,98.49 C311.636,97.83 309.833,96.865 307.531,95.596 C305.229,94.326 303.139,93.192 301.26,92.193 C299.381,91.195 296.41,89.714 292.348,87.75ZM296.816,41.895 C296.85,42.132 296.876,42.352 296.893,42.555 C296.91,42.758 296.918,43.046 296.918,43.418 C296.918,44.366 296.622,45.458 296.029,46.693 C295.437,47.929 294.675,49.199 293.744,50.502 C292.813,51.805 291.425,53.667 289.58,56.088 C287.735,58.508 286.034,60.734 284.477,62.766 C291.586,61.411 297.654,60.108 302.682,58.855 C307.709,57.603 311.848,56.342 315.098,55.072 C318.348,53.803 320.794,52.465 322.436,51.061 C324.078,49.656 324.898,48.191 324.898,46.668 C324.898,44.975 323.18,43.646 319.744,42.682 C316.308,41.717 312.102,41.234 307.125,41.234 C306.109,41.234 305.035,41.26 303.9,41.311 C302.766,41.361 301.412,41.463 299.838,41.615 C298.264,41.768 297.257,41.861 296.816,41.895ZM364.66,82.316 L366.336,83.586 C365.896,84.534 365.473,85.363 365.066,86.074 C364.66,86.785 364.169,87.648 363.594,88.664 C363.018,89.68 362.578,90.441 362.273,90.949 C359.734,95.384 357.348,97.602 355.113,97.602 C354.165,97.602 353.353,97.229 352.676,96.484 C351.999,95.74 351.66,94.724 351.66,93.438 C351.66,91.609 352.312,89.104 353.615,85.922 C354.919,82.74 356.933,78.821 359.658,74.166 C362.384,69.511 365.811,64.238 369.941,58.348 C374.072,52.457 378.727,46.245 383.906,39.711 C380.927,39.271 377.389,39.051 373.293,39.051 C368.587,39.051 363.348,39.576 357.576,40.625 C351.804,41.674 346.777,42.885 342.494,44.256 C338.212,45.627 336.07,46.634 336.07,47.277 C336.07,47.514 336.155,47.675 336.324,47.76 C336.494,47.844 336.773,47.912 337.162,47.963 C337.551,48.014 338.051,48.073 338.66,48.141 C342.621,48.682 344.602,49.292 344.602,49.969 C344.602,50.307 343.738,50.468 342.012,50.451 C340.285,50.434 338.203,50.426 335.766,50.426 C333.836,50.426 332.44,50.35 331.576,50.197 C330.713,50.045 330.137,49.757 329.85,49.334 C329.562,48.911 329.418,48.259 329.418,47.379 C329.418,46.803 329.587,45.551 329.926,43.621 C330.569,40.033 331.559,37.155 332.897,34.988 C334.234,32.822 336.282,31.053 339.041,29.682 C341.8,28.311 345.6,27.219 350.441,26.406 C358.566,25.018 365.286,24.324 370.602,24.324 C374.529,24.324 377.626,24.485 379.895,24.807 C382.163,25.128 383.83,25.594 384.897,26.203 C385.963,26.813 386.64,27.413 386.928,28.006 C387.216,28.598 387.596,29.622 388.07,31.078 L389.645,35.75 C389.746,36.055 389.831,36.3 389.898,36.486 C389.966,36.673 390.025,36.867 390.076,37.07 C390.127,37.273 390.152,37.46 390.152,37.629 C390.152,38.949 389.856,40.134 389.264,41.184 C388.671,42.233 387.588,43.807 386.014,45.906 C384.44,48.005 383.28,49.647 382.535,50.832 C373.801,65.017 367.842,75.512 364.66,82.316ZM429.813,71.5 C425.75,71.635 422.771,71.703 420.875,71.703 C417.964,71.703 413.935,71.635 408.789,71.5 C407.706,72.685 406.385,74.081 404.828,75.689 C403.271,77.298 401.798,78.787 400.41,80.158 C399.022,81.529 397.829,82.697 396.83,83.662 C395.831,84.627 395.01,85.431 394.367,86.074 C390.609,89.73 388.163,92.117 387.029,93.234 C385.895,94.352 384.702,95.359 383.449,96.256 C382.197,97.153 381.046,97.602 379.996,97.602 C378.811,97.602 378.219,97.06 378.219,95.977 C378.219,94.792 379.065,92.964 380.758,90.492 C382.451,88.021 384.363,85.837 386.496,83.941 C388.629,82.046 390.372,81.098 391.727,81.098 C392.099,81.098 392.624,81.267 393.301,81.605 L402.949,71.297 C401.731,71.128 400.139,71.018 398.176,70.967 C396.212,70.916 394.892,70.772 394.215,70.535 C393.538,70.298 393.199,69.723 393.199,68.809 C393.199,67.353 394.757,65.068 397.871,61.953 C399.564,60.227 401.155,59.126 402.645,58.652 C404.134,58.178 406.978,57.924 411.176,57.891 C408.704,58.229 406.953,58.627 405.92,59.084 C404.887,59.541 404.32,60.227 404.219,61.141 C405.201,61.141 406.106,61.141 406.936,61.141 C407.765,61.141 408.848,61.132 410.186,61.115 C411.523,61.098 412.513,61.073 413.156,61.039 C418.708,55.622 423.753,50.908 428.289,46.896 C432.826,42.885 437.607,39.076 442.635,35.471 C447.662,31.865 453.02,28.556 458.707,25.543 C459.824,26.999 460.383,28.522 460.383,30.113 C460.383,31.434 459.951,32.957 459.088,34.684 C458.225,36.41 456.397,39.652 453.604,44.408 C450.811,49.165 447.975,54.217 445.098,59.566 C446.046,59.566 446.833,59.575 447.459,59.592 C448.085,59.609 448.754,59.634 449.465,59.668 C451.395,59.668 452.571,59.702 452.994,59.77 C453.417,59.837 453.629,60.176 453.629,60.785 C453.629,61.056 453.367,61.538 452.842,62.232 C452.317,62.926 451.395,64.077 450.074,65.686 C448.754,67.294 447.467,68.927 446.215,70.586 L438.75,71.195 C434.789,78.643 432.809,82.841 432.809,83.789 C432.809,85.177 433.536,85.871 434.992,85.871 C435.703,85.871 438.648,84.382 443.828,81.402 L443.422,84.094 C440.646,86.193 438.488,87.843 436.947,89.045 C435.407,90.247 434.07,91.245 432.936,92.041 C431.801,92.837 430.769,93.429 429.838,93.818 C428.907,94.208 427.967,94.402 427.02,94.402 C425.902,94.402 424.802,93.886 423.719,92.854 C422.635,91.821 422.094,90.357 422.094,88.461 C422.094,87.682 422.382,86.574 422.957,85.135 C423.533,83.696 424.15,82.316 424.811,80.996 C425.471,79.676 427.138,76.51 429.813,71.5ZM420.215,59.973 L436.668,59.668 C438.598,56.384 440.163,53.727 441.365,51.695 C442.567,49.664 443.887,47.455 445.326,45.068 C446.765,42.682 448.001,40.659 449.033,39 C450.066,37.341 451.208,35.462 452.461,33.363 C450.023,34.887 447.535,36.579 444.996,38.441 C442.457,40.303 439.596,42.546 436.414,45.17 C433.232,47.794 430.405,50.231 427.934,52.482 C425.462,54.734 422.889,57.23 420.215,59.973ZM463.481,16.961 C462.363,16.961 460.992,15.878 459.367,13.711 C457.336,11.07 455.728,8.819 454.543,6.957 C453.358,5.095 452.766,3.639 452.766,2.59 C452.766,1.134 453.849,0.406 456.016,0.406 C457.979,0.406 459.503,1.007 460.586,2.209 C461.669,3.411 462.82,5.62 464.039,8.836 C465.122,11.714 465.664,13.66 465.664,14.676 C465.664,15.285 465.461,15.818 465.055,16.275 C464.648,16.732 464.124,16.961 463.481,16.961Z"/>
    <path class="brush-underline" fill="none" stroke="var(--asset-gold, #c6a15b)" stroke-width="7" stroke-linecap="round" d="M18 108c98 22 248 18 370-4"/>
  </g>
</svg>
