<svg xmlns="http://www.w3.org/2000/svg" viewBox="0 0 180 48" role="img" aria-labelledby="title desc">
  <title id="title">Yīng · 鹰</title>
  <desc id="desc">Firma identitaria secondaria Yīng, aquila.</desc>
  <g fill="currentColor">
    <path class="signature-ying-path" fill="var(--asset-gold, #c6a15b)" d="M25.998,10.26 L17.531,26.513 L17.531,35.976 L14.194,35.976 L14.194,26.596 L5.943,10.26 L9.745,10.26 L15.307,21.648 C15.318,21.66 15.522,22.207 15.921,23.292 L15.971,23.292 C16.104,22.827 16.33,22.285 16.651,21.665 L22.462,10.26ZM29.684,35.976 L29.684,17.614 L32.938,17.614 L32.938,35.976ZM35.992,14.244 L26.629,14.244 L26.629,12.119 L35.992,12.119ZM54.536,35.976 L51.299,35.976 L51.299,25.533 C51.299,21.759 49.921,19.872 47.165,19.872 C45.737,19.872 44.564,20.403 43.646,21.466 C42.727,22.528 42.268,23.873 42.268,25.5 L42.268,35.976 L39.014,35.976 L39.014,17.614 L42.268,17.614 L42.268,20.652 L42.334,20.652 C43.717,18.339 45.726,17.183 48.36,17.183 C50.375,17.183 51.908,17.827 52.959,19.117 C54.01,20.406 54.536,22.285 54.536,24.753ZM76.533,34.432 C76.533,41.227 73.235,44.625 66.639,44.625 C64.359,44.625 62.378,44.199 60.695,43.347 L60.695,40.209 C62.743,41.349 64.707,41.919 66.589,41.919 C71.049,41.919 73.279,39.573 73.279,34.88 L73.279,32.938 L73.213,32.938 C71.818,35.251 69.738,36.407 66.971,36.407 C64.669,36.407 62.826,35.583 61.442,33.934 C60.059,32.285 59.367,30.099 59.367,27.376 C59.367,24.244 60.131,21.762 61.658,19.93 C63.186,18.098 65.222,17.183 67.768,17.183 C70.214,17.183 72.029,18.157 73.213,20.104 L73.279,20.104 L73.279,17.614 L76.533,17.614ZM73.279,25.052 C73.29,23.635 72.814,22.418 71.852,21.399 C70.889,20.381 69.704,19.872 68.299,19.872 C66.528,19.872 65.15,20.522 64.165,21.823 C63.18,23.123 62.688,24.908 62.688,27.177 C62.688,29.125 63.163,30.702 64.115,31.908 C65.067,33.115 66.329,33.718 67.9,33.718 C69.483,33.718 70.778,33.142 71.785,31.991 C72.792,30.84 73.29,29.379 73.279,27.608ZM92.421,24.753 C92.421,24.166 92.631,23.666 93.052,23.25 C93.472,22.835 93.976,22.628 94.563,22.628 C95.149,22.628 95.655,22.833 96.082,23.242 C96.508,23.652 96.721,24.155 96.721,24.753 C96.721,25.328 96.513,25.827 96.098,26.247 C95.683,26.668 95.166,26.878 94.546,26.878 C93.937,26.878 93.431,26.668 93.027,26.247 C92.623,25.827 92.421,25.328 92.421,24.753ZM125.508,12.916 L127.666,13.447 C127.467,13.868 127.268,14.277 127.068,14.676 L132.613,14.676 L132.016,13.215 L134.307,12.717 L135.004,14.676 L141.545,14.676 L141.545,16.137 L135.037,16.137 L135.037,17.631 L140.781,17.631 L140.781,19.025 L135.037,19.025 L135.037,20.52 L140.781,20.52 L140.781,21.914 L135.037,21.914 L135.037,23.408 L141.744,23.408 L141.744,24.869 L126.537,24.869 L126.537,25.467 L124.412,25.467 L124.412,19.49 C123.859,20.331 123.328,21.062 122.818,21.682 C122.354,21.15 121.844,20.63 121.291,20.121 C122.973,18.284 124.379,15.882 125.508,12.916ZM125.574,8.533 L127.898,7.604 C128.385,8.533 128.895,9.585 129.426,10.758 L141.977,10.758 L141.977,12.684 L115.049,12.684 L115.049,23.607 C115.049,30.846 113.82,36.523 111.363,40.641 C110.788,39.932 110.168,39.257 109.504,38.615 C111.607,35.162 112.658,30.193 112.658,23.707 L112.658,10.758 L126.736,10.758 C126.382,10.005 125.995,9.264 125.574,8.533ZM120.992,28.057 L120.992,32.439 L140.781,32.439 C140.737,33.989 140.682,35.251 140.615,36.225 C140.416,38.947 138.734,40.309 135.568,40.309 C134.55,40.309 132.901,40.286 130.621,40.242 C130.555,39.445 130.422,38.737 130.223,38.117 C132.857,38.228 134.65,38.283 135.602,38.283 C137.35,38.283 138.28,37.486 138.391,35.893 C138.457,35.251 138.49,34.609 138.49,33.967 L118.734,33.967 L118.734,26.529 L125.375,26.529 L125.873,25.566 L128.297,25.566 L127.732,26.529 L137.428,26.529 C137.384,27.614 137.306,28.499 137.195,29.186 C136.93,30.735 135.912,31.51 134.141,31.51 C133.477,31.51 132.303,31.499 130.621,31.477 C130.533,30.879 130.4,30.259 130.223,29.617 C131.263,29.706 132.414,29.75 133.676,29.75 C134.65,29.75 135.159,29.186 135.203,28.057ZM120.195,12.949 L122.287,13.68 C121.8,14.609 121.324,15.484 120.859,16.303 L120.859,25.467 L118.668,25.467 L118.668,19.789 C118.004,20.741 117.351,21.593 116.709,22.346 C115.912,21.327 115.425,20.719 115.248,20.52 C117.24,18.549 118.889,16.026 120.195,12.949ZM115.182,35.461 L135.568,35.461 L135.568,36.988 L115.182,36.988ZM126.537,23.408 L132.912,23.408 L132.912,21.914 L126.537,21.914ZM126.537,20.52 L132.912,20.52 L132.912,19.025 L126.537,19.025ZM126.537,17.631 L132.912,17.631 L132.912,16.137 L126.537,16.137ZM124.545,28.389 C126.05,28.942 127.644,29.617 129.326,30.414 L128.43,31.975 C126.792,31.111 125.209,30.392 123.682,29.816Z"/>
  </g>
</svg>
